<svg width="16" height="10" viewBox="0 0 16 10" fill="none" xmlns="http://www.w3.org/2000/svg">
<path fill-rule="evenodd" clip-rule="evenodd" d="M5.99933 9.99945C5.68688 9.99945 5.38893 9.853 5.19954 9.59908L3.04728 6.72979L1.83138 8.5541C1.52483 9.01312 0.903616 9.1361 0.44464 8.83148C-0.014336 8.52478 -0.139344 7.90466 0.167392 7.44478L2.16738 4.44474C2.34707 4.17426 2.64779 4.00918 2.97208 3.99935C3.29922 4.00435 3.60493 4.1389 3.79922 4.39989L5.8285 7.10479L8.10483 2.55211C8.26005 2.24265 8.5639 2.03462 8.90952 2.0034C9.25718 1.96821 9.59115 2.12156 9.79922 2.3998L11.8285 5.10488L14.1049 0.55202C14.3519 0.05903 14.9515 -0.1402 15.4467 0.10491C15.9408 0.35193 16.1409 0.95256 15.8939 1.44676L12.8938 7.44668C12.7387 7.75631 12.4348 7.96434 12.0892 7.99539C11.7416 8.02592 11.4076 7.87723 11.1995 7.59899L9.17024 4.89391L6.89382 9.4466C6.7387 9.75623 6.43485 9.96426 6.08922 9.99548C6.05901 9.99841 6.0287 9.99945 5.99933 9.99945Z" fill="white"/>
</svg>
