<svg width="16" height="16" viewBox="0 0 16 16" fill="none" xmlns="http://www.w3.org/2000/svg">
<path opacity="0.5" fill-rule="evenodd" clip-rule="evenodd" d="M11.01 -0.000112H15C15.5523 -0.000112 16 0.447696 16 0.999856V2.99994V3.9999V15C16 15.5523 15.5523 15.9999 15 15.9999H0.999984C0.447696 15.9999 -1.6e-05 15.5523 -1.6e-05 15V3.9999V2.99994V0.999856C-1.6e-05 0.447696 0.447696 -0.000112 0.999984 -0.000112H4.99H5.00995H10.99H11.01ZM2.49998 3.9999C2.22384 3.9999 1.99998 4.22381 1.99998 4.49997V13.4999C1.99998 13.7761 2.22384 13.9998 2.49998 13.9998H13.5C13.7761 13.9998 14 13.7761 14 13.4999V4.49997C14 4.22381 13.7761 3.9999 13.5 3.9999H11.01H10.99H5.00995H4.99H2.49998ZM10.5 10H8.99997V7.49984V6.49989C8.99997 6.22371 8.77611 5.99998 8.49997 5.99998H7.49997H5.49997C5.22382 5.99998 4.99997 6.22371 4.99997 6.49989V7.49984C4.99997 7.77602 5.22382 7.9999 5.49997 7.9999H6.99997V10H5.49997C5.22382 10 4.99997 10.2237 4.99997 10.4999V11.4999C4.99997 11.776 5.22382 11.9999 5.49997 11.9999H7.49997H8.49997H10.5C10.7761 11.9999 11 11.776 11 11.4999V10.4999C11 10.2237 10.7761 10 10.5 10Z" fill="white"/>
</svg>
