<svg width="16" height="15" viewBox="0 0 16 15" fill="none" xmlns="http://www.w3.org/2000/svg">
<path fill-rule="evenodd" clip-rule="evenodd" d="M-0.000112 8.43738C-0.000112 3.7774 3.58165 -7.5e-05 7.99987 -7.5e-05C12.4181 -7.5e-05 15.9999 3.7774 15.9999 8.43738C15.9999 8.95522 15.6019 9.3749 15.111 9.3749C14.6201 9.3749 14.2221 8.95522 14.2221 8.43738C14.2221 4.81876 11.4308 1.87479 7.99987 1.87479C4.5689 1.87479 1.7776 4.81876 1.7776 8.43738C1.7776 8.95522 1.3797 9.3749 0.888752 9.3749C0.397792 9.3749 -0.000112 8.95522 -0.000112 8.43738ZM9.77768 11.2498C9.77768 10.216 8.98011 9.3749 7.99987 9.3749C7.01955 9.3749 6.22208 10.216 6.22208 11.2498C6.22208 12.2837 7.01955 13.1248 7.99987 13.1248C8.98011 13.1248 9.77768 12.2837 9.77768 11.2498ZM8.88874 7.618V4.68734C8.88874 4.16949 8.49083 3.74982 7.99987 3.74982C7.50893 3.74982 7.11102 4.16949 7.11102 4.68734V7.61799C5.57746 8.03426 4.44427 9.50246 4.44427 11.2498C4.44427 13.3209 6.03619 14.9998 7.99987 14.9998C9.96357 14.9998 11.5554 13.3209 11.5554 11.2498C11.5554 9.50247 10.4223 8.03427 8.88874 7.618Z" fill="white"/>
</svg>
