<svg width="16" height="14" viewBox="0 0 16 14" fill="none" xmlns="http://www.w3.org/2000/svg">
<path opacity="0.5" fill-rule="evenodd" clip-rule="evenodd" d="M12.4444 0.875014C12.4444 0.391678 12.0464 -7e-05 11.5555 -7e-05H4.44435C3.9535 -7e-05 3.5555 0.391678 3.5555 0.875014L-1.6e-05 6.99999V13.125C-1.6e-05 13.6081 0.397888 13.9999 0.888832 13.9999H15.1111C15.602 13.9999 16 13.6081 16 13.125V6.99999L12.4444 0.875014ZM5.09514 1.7499H10.9047L13.4444 6.12492H10.2222C9.97669 6.12492 9.77778 6.32087 9.77778 6.56237V6.92202C9.77778 7.83538 9.10114 8.65267 8.17754 8.74133C7.11786 8.84311 6.22216 8.02255 6.22216 6.99999V6.56237C6.22216 6.32087 6.02317 6.12492 5.77778 6.12492H2.5555L5.09514 1.7499ZM13.7778 12.2499H2.22218C1.9767 12.2499 1.7777 12.0539 1.7777 11.8124V7.87489H4.56094C4.95618 9.38371 6.34384 10.4999 7.99997 10.4999C9.65611 10.4999 11.0437 9.38371 11.439 7.87489H14.2222V11.8124C14.2222 12.0539 14.0232 12.2499 13.7778 12.2499Z" fill="white"/>
</svg>
