<svg width="16" height="16" viewBox="0 0 16 16" fill="none" xmlns="http://www.w3.org/2000/svg">
<path opacity="0.5" fill-rule="evenodd" clip-rule="evenodd" d="M15.1643 6.86058L13.8392 6.63979C13.6867 5.98258 13.4263 5.36798 13.0775 4.81341L13.8155 3.78016C14.0969 3.38618 14.0522 2.84643 13.7099 2.50421L13.4957 2.28997C13.1533 1.94773 12.6137 1.90306 12.2197 2.1844L11.1864 2.9225C10.6317 2.57354 10.0173 2.31325 9.3601 2.16059L9.1393 0.835472C9.05882 0.353344 8.6417 -9.6e-05 8.15288 -9.6e-05H7.84707C7.35826 -9.6e-05 6.94102 0.353344 6.86066 0.835472L6.63976 2.16059C5.98261 2.31325 5.36814 2.57354 4.81344 2.9225L3.78019 2.1844C3.38624 1.90306 2.84661 1.94773 2.50422 2.28997L2.29008 2.50421C1.94768 2.84643 1.90306 3.38618 2.18448 3.78016L2.92246 4.81341C2.57362 5.36798 2.31326 5.98258 2.16064 6.63979L0.835536 6.86058C0.35336 6.94096 -1.6e-05 7.35824 -1.6e-05 7.84709V8.15275C-1.6e-05 8.6416 0.35336 9.05886 0.835536 9.13909L2.16064 9.36005C2.31326 10.0173 2.57362 10.6317 2.92246 11.1864L2.18448 12.2197C1.90306 12.6137 1.94768 13.1532 2.29008 13.4956L2.50422 13.7097C2.84661 14.0521 3.38624 14.0968 3.78019 13.8154L4.81344 13.0773C5.36814 13.4261 5.98261 13.6866 6.63976 13.8392L6.86066 15.1644C6.94102 15.6465 7.35826 15.9999 7.84707 15.9999H8.15278C8.6417 15.9999 9.05882 15.6465 9.1393 15.1644L9.3601 13.8392C10.0173 13.6866 10.6317 13.4261 11.1864 13.0773L12.2197 13.8154C12.6137 14.0968 13.1533 14.0521 13.4957 13.7097L13.7099 13.4956C14.0522 13.1532 14.0969 12.6137 13.8155 12.2197L13.0775 11.1864C13.4263 10.6317 13.6867 10.0173 13.8392 9.36005L15.1643 9.13909C15.6466 9.05886 16 8.6416 16 8.15275V7.84709C16 7.35824 15.6466 6.94096 15.1643 6.86058ZM7.99997 11C6.3431 11 4.99997 9.65674 4.99997 7.99992C4.99997 6.34309 6.3431 4.99987 7.99997 4.99987C9.65685 4.99987 11 6.34309 11 7.99992C11 9.65674 9.65685 11 7.99997 11Z" fill="white"/>
</svg>
