<svg width="16" height="16" viewBox="0 0 16 16" fill="none" xmlns="http://www.w3.org/2000/svg">
<path opacity="0.5" fill-rule="evenodd" clip-rule="evenodd" d="M-1.6e-05 7.9999C-1.6e-05 3.58158 3.58174 -0.000112 7.99997 -0.000112C12.4182 -0.000112 16 3.58158 16 7.9999C16 12.4182 12.4182 15.9999 7.99997 15.9999C3.58174 15.9999 -1.6e-05 12.4182 -1.6e-05 7.9999ZM1.99998 7.9999C1.99998 11.3084 4.69158 14 7.99997 14C11.3084 14 14 11.3084 14 7.9999C14 4.6916 11.3084 1.99997 7.99997 1.99997C4.69158 1.99997 1.99998 4.6916 1.99998 7.9999ZM8.49997 7.9999H10.01C10.5567 7.9999 11 8.44322 11 8.98986V9.00986C11 9.55667 10.5567 9.99998 10.01 9.99998H7.99997H6.99997H6.99C6.44325 9.99998 5.99997 9.55667 5.99997 9.00986V5.98998C5.99997 5.44317 6.44325 4.99986 6.99 4.99986H7.00995C7.5567 4.99986 7.99997 5.44317 7.99997 5.98998V7.5C7.99997 7.776 8.22382 7.9999 8.49997 7.9999Z" fill="white"/>
</svg>
